<svg xmlns="http://www.w3.org/2000/svg" viewBox="0 0 320.53 83.81"><title>Dragon Ball Z logo</title><path d="M642.09,470.24c2-.13,4-.06,6.07-.07,8-.08,16.07,0,24.11-.07q-11.52,14.11-23,28.26c-4.16,5.15-8.36,10.26-12.51,15.42.29.91.79,1.72,1.15,2.6a14.06,14.06,0,0,0,.78,1.6c.75-.52,1.32-1.27,2.06-1.82,4.7-4.3,9.44-8.55,14.14-12.85,2.73-2.41,5.36-4.95,8.14-7.31-1,3.48-2.16,6.91-3.23,10.37l-14.93,47.5q-36.83,0-73.66,0c2.16-2.46,4.18-5,6.3-7.53q14.08-17,28.18-34a9.24,9.24,0,0,0-1.08-2c-1-1.58-1.89-3.24-3-4.77-1.34,1.39-2.76,2.7-4,4.17-1.13,1.18-2.3,2.31-3.43,3.49s-2.3,2.42-3.47,3.62c-.81.77-1.48,1.66-2.29,2.43-1.13,1.18-2.34,2.28-3.39,3.53-1.5,1.6-3.13,3.09-4.57,4.76,4.31-19.13,8.74-38.23,13-57.36C609.72,470.28,625.91,470.22,642.09,470.24Zm-17.55,3.87c-9.21,0-18.43.1-27.64.08-.7,2.55-1.22,5.16-1.86,7.73q-2.74,11.76-5.5,23.51c-.69,3.06-1.47,6.11-2.11,9.18,1.06-1,2-2.13,3.06-3.19l13.63-14.37c1.83-1.89,3.6-3.85,5.46-5.71,1.15-.16,2.33,0,3.49-.08l15.51-.09c-3.89,4.54-7.76,9.09-11.67,13.6-3.59,0-7.18.07-10.77.11,1.26,2.77,2.74,5.43,4,8.18q-12.28,14.87-24.59,29.73c-1.87,2.31-3.83,4.55-5.65,6.89,3.11,0,6.23,0,9.35,0,17.59,0,35.17,0,52.76,0q6.06-18.82,12.17-37.62c.42-1.36.93-2.7,1.27-4.08-1.51,1.21-2.89,2.59-4.35,3.87l-22.56,20.45c-.25.29-.64.24-1,.24-3.72-.09-7.45-.1-11.17-.21,3.43-4.28,6.94-8.49,10.4-12.74.15-.27.48-.25.76-.26,2.39,0,4.78,0,7.18,0-.81-2.11-1.76-4.16-2.61-6.25C642.69,500,653.3,487,663.86,474Q644.2,474,624.54,474.11Zm-13.1,21.29c-.67.58-1.15,1.34-1.79,1.95-.94,1.1-2,2.13-2.87,3.26,1.36.05,2.73,0,4.1,0s2.89.08,4.33,0c.54-.49.94-1.11,1.45-1.63,1-1.21,2.11-2.32,3-3.59-1.36,0-2.73,0-4.1,0S612.81,495.26,611.44,495.4Zm17.3,28.46c-1.52,1.65-3.05,3.28-4.58,4.91.8,0,1.6,0,2.4,0,.36,0,.57-.35.83-.56.79-.84,1.72-1.54,2.53-2.36s1.61-1.34,2.28-2.16c-.92,0-1.85,0-2.77,0C629.18,523.69,628.88,523.62,628.73,523.86Z" transform="translate(-351.73 -470.09)"/><path d="M351.73,473.11c1.84,0,3.7-.1,5.53.07A39.89,39.89,0,0,1,380.53,484c.41.4.8.81,1.25,1.18.26-1.62.11-3.27.26-4.9a4.79,4.79,0,0,1,1.59-.21c1.07,0,2.15,0,3.22,0a32.88,32.88,0,0,1,14.42,5,28.29,28.29,0,0,1,5.71,4.63,13.9,13.9,0,0,0,.3-1.51l16.09,3.1c.58,2.46,1.19,4.92,1.8,7.38a13,13,0,0,1,2.83-2.21,22.93,22.93,0,0,1,15-3.89,24.82,24.82,0,0,1,10.92,3.26,13.32,13.32,0,0,1,5.58,6.74,4.65,4.65,0,0,1-.08,1.34c-.18,2-.39,4-.57,6a23.75,23.75,0,0,1,2.72.2c.26-1.35.3-2.72.49-4.08.35-3.53.79-7,1.1-10.57,1.6.16,3.21.16,4.82.2,1.4.16,2.81.12,4.22.16.88.07,1.77.15,2.66.14,1.52,2.6,2.67,5.41,4.24,8,.27-2.6.31-5.22.55-7.83,2,0,4,.23,6,.22,1.62.21,3.27.06,4.89.27a4.67,4.67,0,0,0,1.15,0,53.93,53.93,0,0,1,10.82-1.67c1.19,0,2.36-.16,3.55-.17a22.36,22.36,0,0,1,9.8,1.67,28.51,28.51,0,0,1,2.69,1.45c.26-1.4.44-2.81.62-4.22,4.4-.56,8.82-1,13.23-1.56,1.27-.12,2.53-.36,3.81-.38.32,2,.77,4,1.13,6a3,3,0,0,0,.26.87c.29-2.1.31-4.23.54-6.34,0-.38,0-.75,0-1.13L554.15,488c-.35,3.32-.48,6.65-.77,10-.41,5.67-.8,11.34-1.23,17,0,1.15-.25,2.27-.19,3.42l1.2-.22c1.6-10.5,3.22-21,4.8-31.51,5.79-1.55,11.62-2.91,17.41-4.43-2.44,13.63-4.81,27.28-7.21,40.91,2.31-.44,4.59-1.07,6.89-1.6,1.38-.31,2.74-.67,4.12-1-1.85,9.05-3.79,18.08-5.64,27.13-2,0-3.9.19-5.85.16s-3.71,0-5.55.14c-2.65.07-5.29,0-7.93.18-1.86,0-3.73,0-5.59.06.23-2.15.69-4.26.91-6.41-1.15.19-2.32.26-3.46.5.19,1.17.44,2.32.68,3.48-3.86.56-7.7,1.21-11.56,1.8-2,.34-4,.59-5.92,1-.27-2.43-.53-4.85-.81-7.27a23.17,23.17,0,0,0-.42-3.12,1.16,1.16,0,0,0-.21.59c-.5,3.65-1.06,7.3-1.54,11-4.81-.47-9.63-.77-14.44-1.19-.41,0-.77-.29-1.19-.18a35.25,35.25,0,0,1-6.23.55,29.65,29.65,0,0,1-4.56-.16A15.63,15.63,0,0,1,496,548c-.23-2.58-.51-5.15-.73-7.72s-.5-5.11-1-7.63a3.49,3.49,0,0,0-.34-1.06c-.12,2.5,0,5-.06,7.52,0,3.37,0,6.74,0,10.11-4.63.06-9.25.18-13.88.13-.82-1.4-1.55-2.84-2.41-4.22-.3,1.34-.53,2.7-.75,4.06-1.67,0-3.33,0-5,.13-2.87.07-5.74,0-8.61.18-2,0-3.94,0-5.92.05.29-1.95.43-3.91.67-5.87a16.52,16.52,0,0,1-4.36-.91c-.18,0-.44-.21-.58,0a26.78,26.78,0,0,1-3,2.87,18.73,18.73,0,0,1-9.33,3.82,23.27,23.27,0,0,1-3.61.11,17.51,17.51,0,0,1-9.17-3.47,11,11,0,0,0-1.3-1,4.78,4.78,0,0,0-1.07.1c-2.22.4-4.45.71-6.67,1.13-.4-2.13-.62-4.3-1-6.44-.26-1.72-.26-3.59-1.2-5.11a12.79,12.79,0,0,0-.47,3.69,14.32,14.32,0,0,0-2.17-.06c.77,1.37,1.71,2.63,2.47,4q-8.84,3.27-17.7,6.48c-.73-1.57-1.46-3.14-2.24-4.68-.3.94-.28,2-.55,2.91-5.63-.46-11.28-.81-16.91-1.24.13-1.24.07-2.48.12-3.72-.75.41-1.4,1-2.13,1.4a29.32,29.32,0,0,1-10.43,4.06c-.26,0-.51.06-.77.08-1.4-8.49-2.71-17-4.06-25.48-.83-5-1.55-10.09-2.44-15.11q-1.29-.29-2.57-.64c-.81-5.71-1.76-11.41-2.61-17.11C353.41,483.93,352.61,478.52,351.73,473.11Zm4,3.34q2,13.81,4,27.61c1.08.09,2.16.14,3.24.28,1.94,13.1,3.95,26.19,5.91,39.29a33,33,0,0,0,13.55-9.33,29.14,29.14,0,0,0,6.22-12.65,45,45,0,0,0-.22-18.56,29.83,29.83,0,0,0-7.63-14.47,41.33,41.33,0,0,0-16.3-10.37A28.68,28.68,0,0,0,355.72,476.45Zm29.29,7c-.1,1.61-.17,3.23-.23,4.84,0,.29.16.52.32.74a41.22,41.22,0,0,1,6.52,12.89,38.33,38.33,0,0,1,1.22,15.6,37.57,37.57,0,0,1-10.15,21.6c-.28.21-.24.58-.27.9,0,1-.1,2-.13,3.06,3.7.23,7.4.54,11.1.75q.53-6.37,1.09-12.74c1.78,4.1,3.45,8.24,5.18,12.36a4.28,4.28,0,0,0,.54,1.13c3.85-1.35,7.71-2.71,11.54-4.11-3.94-6.32-7.91-12.61-11.83-18.94a19.29,19.29,0,0,0,9-11.19,18.63,18.63,0,0,0-1.34-13.28,25.47,25.47,0,0,0-10-10.25,26.71,26.71,0,0,0-7.82-3.13A13.44,13.44,0,0,0,385,483.46Zm175.84,6.26c-.33,1.83-.57,3.67-.87,5.5-1.13,7.48-2.33,14.95-3.42,22.43,2.51-.34,5-.76,7.54-1.05q-1.9,11.87-3.75,23.75c-2.47.37-5,.67-7.43,1-.19,1-.34,2-.46,3,6.25,0,12.5-.1,18.75-.17,1.36-6.43,2.68-12.87,4-19.3-3.59.8-7.16,1.68-10.73,2.53,2.36-13.44,4.8-26.86,7.19-40.3C568.05,487.93,564.45,488.84,560.84,489.71Zm-151.1,2.23c0,.38-.16.81.14,1.13a18.5,18.5,0,0,1,3.35,10.24,30.08,30.08,0,0,1-1.19,8.52,20.93,20.93,0,0,1-5.7,9.29c-.26.28-.66.52-.68.95a18.9,18.9,0,0,0-.28,2.47,12.46,12.46,0,0,0,.77,1.28L412,535c.3.63,1.11.37,1.66.49.24-2.76.52-5.52.75-8.28,1.61-.05,3.23,0,4.85,0,.69,5.24,1.33,10.48,2,15.72a7.86,7.86,0,0,0,2.46-.13c3-.49,5.93-1.17,8.86-1.92q-5.68-23.35-11.37-46.69C417.38,493.48,413.57,492.68,409.74,491.94Zm131,2.13c-.19,3.82-.43,7.63-.66,11.44,0,1.61-.28,3.23-.22,4.84q2.28,11.86,4.6,23.72c.32,1.54.54,3.1.94,4.63,4-.56,8-1,12-1.6.93-5.56,2-11.08,2.9-16.65-3.94.53-7.86,1.15-11.8,1.71.61-9.92,1.4-19.84,2-29.76C547.3,492.92,544,493.5,540.78,494.07Zm-10.25,1.71c-2.84.32-5.69.62-8.53,1-.2,1.12-.43,2.23-.6,3.35-.07.25.15.45.28.63a17.34,17.34,0,0,1,3.15,6,18.27,18.27,0,0,1-1.12,14,19,19,0,0,1-4.21,5.21,15.16,15.16,0,0,1,2,2.46,13.26,13.26,0,0,1,1.88,8.57,11.14,11.14,0,0,1-2.56,6.35,17.59,17.59,0,0,1-2.24,2.08c1.78.09,3.55.3,5.33.39.63-5.27,1.33-10.53,2-15.8,1.49,0,3,.06,4.47.13.5,4.86,1,9.73,1.53,14.59,3.69-.53,7.4-.95,11.08-1.55-1.59-8.51-3.23-17-4.84-25.51-1.39-7.4-2.85-14.78-4.19-22.18C532.79,495.47,531.66,495.69,530.53,495.79Zm-104.31,6.86c1.38,5.82,2.85,11.61,4.26,17.42,1.92,7.8,3.82,15.6,5.76,23.39-1.34.28-2.7.44-4,.71a14.3,14.3,0,0,0,5.06,1.82,14,14,0,0,0,5.91-.86,17.28,17.28,0,0,0,6.73-4.21,17.09,17.09,0,0,1-7.14-10.79,13.54,13.54,0,0,1-4.75.23,7.48,7.48,0,0,1-4.43-2.77,10,10,0,0,1-2.11-7.43,10.62,10.62,0,0,1,3.37-7.13,11.74,11.74,0,0,1,8.16-2.4,8.57,8.57,0,0,1,5.57,3,17,17,0,0,1,7.39-3.5c.27-2,.5-3.91.76-5.87.27-1.16-.69-2.08-1.39-2.87a18.11,18.11,0,0,0-13.51-5.22C436.1,496.39,430.25,498.46,426.22,502.65Zm39.63-4.39c-.42,4.16-.9,8.32-1.32,12.48a17,17,0,0,1,10.85,11.81,17.22,17.22,0,0,1-.54,10.22A16.87,16.87,0,0,1,461,543.64c-.08.91-.2,1.81-.27,2.71q6.84.08,13.67.13c.41-3.94.86-7.88,1.28-11.83,2,3.74,3.89,7.53,5.86,11.28.1.25.43.13.64.17h9.11q.23-23.42.39-46.84c-3.05,0-6.1-.11-9.15-.11q-.44,8.51-.9,17c-1.26-2.44-2.35-5-3.55-7.43l-4.7-10C470.84,498.59,468.35,498.41,465.85,498.26Zm28.49,1.18c0,5.45-.06,10.91,0,16.36l1.62.19c.88,9.72,1.82,19.43,2.67,29.14a39.17,39.17,0,0,0,5.49.17,49.34,49.34,0,0,0,7.57-.73,11.27,11.27,0,0,0,6.09-3.14,8.51,8.51,0,0,0,2.28-5.58,10.62,10.62,0,0,0-3.91-9,11.38,11.38,0,0,0-3.78-1.83,11.25,11.25,0,0,0,7.3-4.83,13.19,13.19,0,0,0,2.41-9.27,16.82,16.82,0,0,0-2.67-7.4,11.24,11.24,0,0,0-5.27-4,21,21,0,0,0-8.17-1.08A76.43,76.43,0,0,0,494.33,499.44Zm-36.9,13.94a13.48,13.48,0,0,0-6.3,24.14,13.52,13.52,0,0,0,17-.67,13.54,13.54,0,0,0,4.4-8,13.68,13.68,0,0,0-.83-7.14,13.49,13.49,0,0,0-14.27-8.29Zm-20.36,4.79c0,2.74,0,5.48,0,8.22h5.38a17.48,17.48,0,0,1,2.31-8.23C442.19,518.13,439.63,518.16,437.07,518.17Z" transform="translate(-351.73 -470.09)"/><path d="M396.59,503.29a5.57,5.57,0,0,1,2.78,2,5.25,5.25,0,0,1,.19,5.86,5.54,5.54,0,0,1-3.79,2.33C396,510.07,396.34,506.68,396.59,503.29Z" transform="translate(-351.73 -470.09)"/><path d="M370,505.22a11.41,11.41,0,0,1,7.36,2.8,8.46,8.46,0,0,1,2.18,5.08,7,7,0,0,1-1.23,5.17,9,9,0,0,1-5.5,3.18C371.94,516,370.95,510.63,370,505.22Zm3.77,5.15c.35,2,.61,4,1.05,6a3.61,3.61,0,0,0,1-3.91A2.88,2.88,0,0,0,373.81,510.37Z" transform="translate(-351.73 -470.09)"/><path d="M416.1,505.31c.67,3.93,1.16,7.89,1.78,11.82-1,0-1.9,0-2.85-.06C415.37,513.16,415.78,509.24,416.1,505.31Z" transform="translate(-351.73 -470.09)"/><path d="M504.75,511.06a5.64,5.64,0,0,1,3.64,1.25,4,4,0,0,1,.8,3.73,3.14,3.14,0,0,1-1.78,2.22,5.28,5.28,0,0,1-2.45.34C504.89,516.1,504.78,513.58,504.75,511.06Z" transform="translate(-351.73 -470.09)"/><path d="M527.73,513.92a18.58,18.58,0,0,1,.39-2.57c.35,3.22.7,6.43,1.06,9.65a19.85,19.85,0,0,1-2.33,0C527.16,518.64,527.44,516.28,527.73,513.92Z" transform="translate(-351.73 -470.09)"/><path d="M505.61,529.61a3.77,3.77,0,0,1,2.92,1.3,3.91,3.91,0,0,1,.53,3.17c-.55,1.23-2.06,1.55-3.28,1.65C505.73,533.69,505.64,531.65,505.61,529.61Z" transform="translate(-351.73 -470.09)"/><path d="M624.54,474.11q19.66-.09,39.32-.15C653.3,487,642.69,500,632.13,513.08c.85,2.09,1.8,4.14,2.61,6.25-2.39,0-4.79,0-7.18,0-.27,0-.6,0-.76.26-3.46,4.26-7,8.47-10.4,12.74,3.72.11,7.45.12,11.17.21.34,0,.73,0,1-.24l22.56-20.45c1.46-1.28,2.84-2.66,4.35-3.87-.34,1.39-.85,2.72-1.27,4.08q-6.08,18.81-12.17,37.62c-17.59.06-35.17,0-52.76,0-3.12,0-6.23,0-9.35,0,1.83-2.34,3.78-4.58,5.65-6.89q12.3-14.86,24.59-29.73c-1.31-2.75-2.79-5.41-4-8.18,3.59,0,7.18-.06,10.77-.11,3.91-4.51,7.79-9.07,11.67-13.6l-15.51.09c-1.16,0-2.34-.08-3.49.08-1.87,1.85-3.63,3.81-5.46,5.71l-13.63,14.37c-1,1.06-2,2.16-3.06,3.19.64-3.08,1.42-6.12,2.11-9.18q2.75-11.76,5.5-23.51c.63-2.57,1.16-5.17,1.86-7.73C606.11,474.21,615.32,474.12,624.54,474.11Z" transform="translate(-351.73 -470.09)" style="fill:red"/><path d="M560.84,489.71c3.61-.88,7.21-1.78,10.83-2.62-2.39,13.43-4.83,26.86-7.19,40.3,3.58-.84,7.15-1.73,10.73-2.53-1.33,6.43-2.66,12.87-4,19.3-6.25.07-12.5.14-18.75.17.12-1,.26-2,.46-3,2.47-.35,5-.65,7.43-1q1.84-11.88,3.75-23.75c-2.52.3-5,.71-7.54,1.05,1.09-7.48,2.29-14.95,3.42-22.43C560.27,493.38,560.51,491.54,560.84,489.71Z" transform="translate(-351.73 -470.09)" style="fill:red"/><path d="M540.78,494.07c3.26-.58,6.52-1.15,9.79-1.67-.61,9.92-1.4,19.84-2,29.76,3.93-.56,7.86-1.17,11.8-1.71-.88,5.56-2,11.09-2.9,16.65-4,.6-8,1-12,1.6-.4-1.53-.62-3.09-.94-4.63q-2.3-11.86-4.6-23.72c-.07-1.61.17-3.23.22-4.84C540.34,501.7,540.58,497.89,540.78,494.07Z" transform="translate(-351.73 -470.09)" style="fill:red"/><path d="M530.53,495.79c1.14-.1,2.26-.32,3.41-.32,1.35,7.4,2.81,14.79,4.19,22.18,1.61,8.5,3.25,17,4.84,25.51-3.68.6-7.39,1-11.08,1.55-.56-4.86-1-9.72-1.53-14.59-1.49-.07-3-.11-4.47-.13-.65,5.27-1.35,10.53-2,15.8-1.78-.1-3.55-.31-5.33-.39a17.59,17.59,0,0,0,2.24-2.08,11.14,11.14,0,0,0,2.56-6.35,13.26,13.26,0,0,0-1.88-8.57,15.16,15.16,0,0,0-2-2.46,19,19,0,0,0,4.21-5.21,18.27,18.27,0,0,0,1.12-14,17.34,17.34,0,0,0-3.15-6c-.13-.19-.35-.38-.28-.63.17-1.12.4-2.24.6-3.35C524.84,496.41,527.68,496.11,530.53,495.79Zm-2.79,18.14c-.29,2.36-.57,4.72-.87,7.08a19.85,19.85,0,0,0,2.33,0c-.37-3.22-.71-6.43-1.06-9.65A18.58,18.58,0,0,0,527.73,513.92Z" transform="translate(-351.73 -470.09)" style="fill:red"/><path d="M494.33,499.44a76.43,76.43,0,0,1,11.61-1,21,21,0,0,1,8.17,1.08,11.24,11.24,0,0,1,5.27,4,16.82,16.82,0,0,1,2.67,7.4,13.19,13.19,0,0,1-2.41,9.27,11.25,11.25,0,0,1-7.3,4.83,11.38,11.38,0,0,1,3.78,1.83,10.62,10.62,0,0,1,3.91,9,8.51,8.51,0,0,1-2.28,5.58,11.27,11.27,0,0,1-6.09,3.14,49.34,49.34,0,0,1-7.57.73,39.17,39.17,0,0,1-5.49-.17c-.85-9.72-1.78-19.43-2.67-29.14l-1.62-.19C494.27,510.35,494.33,504.89,494.33,499.44Zm10.42,11.63c0,2.52.13,5,.21,7.55a5.28,5.28,0,0,0,2.45-.34,3.14,3.14,0,0,0,1.78-2.22,4,4,0,0,0-.8-3.73A5.64,5.64,0,0,0,504.75,511.06Zm.86,18.55c0,2,.12,4.08.17,6.12,1.22-.09,2.73-.41,3.28-1.65a3.91,3.91,0,0,0-.53-3.17A3.77,3.77,0,0,0,505.61,529.61Z" transform="translate(-351.73 -470.09)" style="fill:red"/><path d="M459.07,518.56a5.23,5.23,0,0,1,.58,1.56c.4,1.4.84,2.78,1.19,4.2,2,0,4.07,0,6.11,0a2.71,2.71,0,0,1-.72.66c-1.43.93-2.82,1.91-4.26,2.83.59,1.93,1.36,3.81,1.87,5.77a5.42,5.42,0,0,1-1-.66c-1.25-1-2.53-2-3.78-3-1.69,1.14-3.21,2.52-5,3.56a9.58,9.58,0,0,1,.47-1.48c.54-1.42,1-2.86,1.56-4.27-1.46-1-2.87-2-4.32-3a3.37,3.37,0,0,1-.62-.58,27.94,27.94,0,0,1,3.16.1c1,0,2,0,2.95,0C457.86,522.4,458.43,520.47,459.07,518.56Z" transform="translate(-351.73 -470.09)" style="fill:red"/><path d="M355.72,476.45a28.68,28.68,0,0,1,8.76,1.8,41.33,41.33,0,0,1,16.3,10.37,29.83,29.83,0,0,1,7.63,14.47,45,45,0,0,1,.22,18.56,29.14,29.14,0,0,1-6.22,12.65,33,33,0,0,1-13.55,9.33c-2-13.1-4-26.19-5.91-39.29-1.08-.14-2.16-.19-3.24-.28Q357.7,490.26,355.72,476.45ZM370,505.22c.91,5.41,1.9,10.81,2.81,16.23a9,9,0,0,0,5.5-3.18,7,7,0,0,0,1.23-5.17A8.46,8.46,0,0,0,377.4,508,11.41,11.41,0,0,0,370,505.22Z" transform="translate(-351.73 -470.09)" style="fill:#fff300"/><path d="M385,483.46a13.44,13.44,0,0,1,4.76.23,26.71,26.71,0,0,1,7.82,3.13,25.47,25.47,0,0,1,10,10.25,18.63,18.63,0,0,1,1.34,13.28,19.29,19.29,0,0,1-9,11.19c3.93,6.32,7.9,12.62,11.83,18.94-3.83,1.41-7.69,2.76-11.54,4.11a4.28,4.28,0,0,1-.54-1.13c-1.73-4.12-3.41-8.26-5.18-12.36q-.56,6.37-1.09,12.74c-3.7-.21-7.4-.52-11.1-.75,0-1,.09-2,.13-3.06,0-.31,0-.68.27-.9a37.57,37.57,0,0,0,10.15-21.6,38.33,38.33,0,0,0-1.22-15.6A41.22,41.22,0,0,0,385.09,489c-.16-.22-.36-.45-.32-.74C384.83,486.68,384.9,485.07,385,483.46Zm11.58,19.83c-.25,3.4-.57,6.79-.81,10.18a5.54,5.54,0,0,0,3.79-2.33,5.25,5.25,0,0,0-.19-5.86A5.57,5.57,0,0,0,396.59,503.29Z" transform="translate(-351.73 -470.09)" style="fill:#fff300"/><path d="M409.74,491.94c3.83.74,7.64,1.54,11.46,2.31q5.7,23.34,11.37,46.69c-2.93.75-5.88,1.43-8.86,1.92a7.86,7.86,0,0,1-2.46.13c-.69-5.24-1.34-10.48-2-15.72-1.62,0-3.23-.08-4.85,0-.23,2.76-.51,5.52-.75,8.28-.56-.12-1.37.14-1.66-.49l-5.82-9.21a12.46,12.46,0,0,1-.77-1.28,18.9,18.9,0,0,1,.28-2.47c0-.43.42-.67.68-.95a20.93,20.93,0,0,0,5.7-9.29,30.08,30.08,0,0,0,1.19-8.52,18.5,18.5,0,0,0-3.35-10.24C409.58,492.75,409.69,492.32,409.74,491.94Zm6.36,13.37c-.32,3.93-.73,7.84-1.07,11.77.95,0,1.9.05,2.85.06C417.27,513.2,416.78,509.24,416.1,505.31Z" transform="translate(-351.73 -470.09)" style="fill:#fff300"/><path d="M426.22,502.65c4-4.19,9.88-6.26,15.62-6.43a18.11,18.11,0,0,1,13.51,5.22c.7.79,1.67,1.71,1.39,2.87-.26,2-.5,3.91-.76,5.87a17,17,0,0,0-7.39,3.5,8.57,8.57,0,0,0-5.57-3,11.74,11.74,0,0,0-8.16,2.4,10.62,10.62,0,0,0-3.37,7.13,10,10,0,0,0,2.11,7.43,7.48,7.48,0,0,0,4.43,2.77,13.54,13.54,0,0,0,4.75-.23,17.09,17.09,0,0,0,7.14,10.79,17.28,17.28,0,0,1-6.73,4.21,14,14,0,0,1-5.91.86,14.3,14.3,0,0,1-5.06-1.82c1.34-.27,2.7-.42,4-.71-1.94-7.79-3.84-15.6-5.76-23.39C429.06,514.26,427.6,508.46,426.22,502.65Z" transform="translate(-351.73 -470.09)" style="fill:#fff300"/><path d="M465.85,498.26c2.5.15,5,.33,7.5.51l4.7,10c1.2,2.47,2.29,5,3.55,7.43q.47-8.51.9-17c3.05,0,6.1.09,9.15.11q-.16,23.42-.39,46.84h-9.11c-.21,0-.54.08-.64-.17-2-3.75-3.86-7.54-5.86-11.28-.41,3.94-.86,7.88-1.28,11.83q-6.84,0-13.67-.13c.08-.91.2-1.81.27-2.71a17,17,0,0,0,3.54-32.9C464.95,506.58,465.42,502.42,465.85,498.26Z" transform="translate(-351.73 -470.09)" style="fill:#fff300"/><path d="M457.43,513.38a13.49,13.49,0,0,1,10.71,23.47,13.48,13.48,0,0,1-21.55-5.41,13.48,13.48,0,0,1,10.84-18.07Zm1.64,5.18c-.64,1.9-1.21,3.83-1.81,5.75-1,0-2,0-2.95,0a27.94,27.94,0,0,0-3.16-.1,3.37,3.37,0,0,0,.62.58c1.45,1,2.86,2,4.32,3-.56,1.41-1,2.85-1.56,4.27a9.58,9.58,0,0,0-.47,1.48c1.75-1,3.27-2.42,5-3.56,1.25,1,2.53,2,3.78,3a5.42,5.42,0,0,0,1,.66c-.51-2-1.27-3.84-1.87-5.77,1.44-.92,2.83-1.9,4.26-2.83a2.71,2.71,0,0,0,.72-.66c-2-.09-4.07,0-6.11,0-.34-1.41-.79-2.8-1.19-4.2A5.23,5.23,0,0,0,459.07,518.56Z" transform="translate(-351.73 -470.09)" style="fill:#fff300"/><path d="M437.07,518.17c2.56,0,5.13,0,7.69,0a17.48,17.48,0,0,0-2.31,8.23h-5.38C437,523.65,437.05,520.91,437.07,518.17Z" transform="translate(-351.73 -470.09)" style="fill:#fff300"/></svg>