<svg xmlns="http://www.w3.org/2000/svg" viewBox="0 0 320.5 83.8"><path d="M290.4.2c2-.2 4-.1 6-.1h24.1l-23 28.2L285 43.7c.3.9.8 1.7 1.2 2.6a14 14 0 0 0 .8 1.6l2-1.8 14.2-12.9c2.7-2.4 5.3-5 8.1-7.3l-3.2 10.4-15 47.5h-73.6l6.3-7.5 28.2-34a9.2 9.2 0 0 0-1.1-2l-3-4.8c-1.4 1.4-2.8 2.7-4 4.2l-3.5 3.4c-1.2 1.1-2.3 2.5-3.4 3.7l-2.3 2.4c-1.1 1.2-2.4 2.3-3.4 3.5l-4.6 4.8c4.3-19.1 8.8-38.2 13-57.4h48.7ZM272.8 4l-27.6.1-1.9 7.7-5.5 23.5-2.1 9.2 3-3.2L252.5 27l5.4-5.7c1.2-.2 2.4 0 3.5-.1l15.5-.1-11.6 13.6h-10.8l4 8.3-24.6 29.7-5.6 6.9H290.3L302.4 42c.5-1.4 1-2.7 1.3-4.1-1.5 1.2-2.9 2.6-4.3 3.9l-22.6 20.4c-.2.3-.6.3-1 .3l-11.2-.3L275 49.5c.2-.3.5-.2.8-.3h7.2l-2.6-6.2L312 4h-39.3Zm-13 21.3c-.8.6-1.2 1.4-1.9 2-1 1-2 2-2.9 3.2h8.5l1.4-1.6c1-1.2 2.1-2.3 3-3.6h-8.2ZM277 53.8l-4.6 4.9h2.4c.4 0 .6-.4.9-.6.7-.8 1.7-1.5 2.5-2.3s1.6-1.4 2.3-2.2h-2.8c-.3 0-.6 0-.7.2Z"/><path d="M0 3h5.5a39.9 39.9 0 0 1 23.3 11l1.2 1c.3-1.5.2-3.2.3-4.8A4.8 4.8 0 0 1 32 10h3.2a32.9 32.9 0 0 1 14.4 5 28.3 28.3 0 0 1 5.7 4.6 13.9 13.9 0 0 0 .3-1.5l16.1 3.1 1.8 7.4a13 13 0 0 1 2.9-2.2 23 23 0 0 1 15-4 24.8 24.8 0 0 1 10.9 3.3 13.3 13.3 0 0 1 5.6 6.8 4.7 4.7 0 0 1-.1 1.3l-.6 6a23.8 23.8 0 0 1 2.7.2c.3-1.3.3-2.7.5-4l1.1-10.6 4.8.2 4.3.1 2.6.2c1.5 2.6 2.7 5.4 4.3 8l.5-7.9 6 .3c1.6.2 3.3 0 5 .2a4.7 4.7 0 0 0 1 0 54 54 0 0 1 10.9-1.6l3.5-.2a22.4 22.4 0 0 1 9.8 1.7 28.5 28.5 0 0 1 2.7 1.4l.6-4.2 13.3-1.6c1.2 0 2.5-.3 3.8-.3l1.1 6a3 3 0 0 0 .3.8c.3-2 .3-4.2.5-6.3V21l16-3.2-.8 10-1.2 17-.2 3.4 1.2-.2 4.8-31.5 17.4-4.4-7.2 40.9 7-1.6 4-1-5.6 27.1-5.9.2-5.5.1c-2.7 0-5.3 0-8 .2H197c.2-2.1.7-4.2.9-6.4l-3.5.5.7 3.5-11.6 1.8-5.9 1-.8-7.2a23.2 23.2 0 0 0-.4-3.2 1.2 1.2 0 0 0-.2.6l-1.6 11-14.4-1.2c-.4 0-.8-.3-1.2-.1a35.3 35.3 0 0 1-6.2.5 29.6 29.6 0 0 1-4.6-.2 15.6 15.6 0 0 1-3.8-.8l-.8-7.7c-.3-2.6-.5-5.1-1-7.6a3.5 3.5 0 0 0-.3-1.1v17.6l-14 .2L126 75a69 69 0 0 0-.8 4.1l-5 .1c-2.9.1-5.7 0-8.6.2h-6c.4-1.9.5-3.8.7-5.8a16.5 16.5 0 0 1-4.3-1h-.6a26.8 26.8 0 0 1-3 3 18.7 18.7 0 0 1-9.3 3.8 23.3 23.3 0 0 1-3.6 0 17.5 17.5 0 0 1-9.2-3.4 11 11 0 0 0-1.3-1 4.8 4.8 0 0 0-1 .1l-6.7 1.1-1-6.4c-.3-1.7-.3-3.6-1.2-5.1a12.8 12.8 0 0 0-.5 3.7 14.3 14.3 0 0 0-2.2 0l2.5 4L47 78.7l-2.3-4.7c-.3 1-.2 2-.5 3l-17-1.3c.2-1.2.1-2.5.2-3.7-.8.4-1.4 1-2.1 1.4a29.3 29.3 0 0 1-10.5 4l-.7.1-4-25.5c-1-5-1.6-10-2.5-15L5 36.3 2.5 19.3 0 3Zm4 3.4L8 34c1 0 2.2.1 3.2.3l6 39.2a33 33 0 0 0 13.5-9.3 29.1 29.1 0 0 0 6.2-12.6 45 45 0 0 0-.2-18.6 29.8 29.8 0 0 0-7.6-14.5A41.3 41.3 0 0 0 12.8 8.2 28.7 28.7 0 0 0 4 6.4Zm29.3 7-.2 4.8c0 .3.1.5.3.7a41.2 41.2 0 0 1 6.5 13 38.3 38.3 0 0 1 1.2 15.5A37.6 37.6 0 0 1 31 69c-.3.2-.3.6-.3 1l-.1 3 11 .7L42.9 61l5.1 12.4a4.3 4.3 0 0 0 .6 1l11.5-4-11.8-19a19.3 19.3 0 0 0 9-11.1A18.6 18.6 0 0 0 55.9 27a25.5 25.5 0 0 0-10-10.3 26.7 26.7 0 0 0-7.9-3.1 13.4 13.4 0 0 0-4.7-.2ZM209 19.6l-.8 5.5-3.5 22.5 7.6-1.1-3.8 23.8-7.4 1-.5 3 18.8-.2 4-19.3-10.7 2.5 7.1-40.3-10.8 2.6ZM58.1 22c0 .3-.2.8 0 1a18.5 18.5 0 0 1 3.4 10.3 30 30 0 0 1-1.2 8.5 21 21 0 0 1-5.7 9.3c-.2.3-.6.6-.6 1a18.9 18.9 0 0 0-.3 2.5 12.5 12.5 0 0 0 .7 1.2l5.9 9.2c.3.6 1 .4 1.6.5l.8-8.3h4.8l2 15.7a7.9 7.9 0 0 0 2.5 0l8.8-2L69.5 24 58 21.9Zm131 2-.7 11.5-.3 4.9 4.7 23.7.9 4.6 12-1.6 2.9-16.6-11.8 1.7 2-29.8L189 24Zm-10.3 1.8-8.6 1-.5 3.3c-.1.3.1.5.2.7a17.3 17.3 0 0 1 3.2 6 18.3 18.3 0 0 1-1.1 14 19 19 0 0 1-4.2 5.2 15.2 15.2 0 0 1 2 2.4 13.3 13.3 0 0 1 1.8 8.6 11.1 11.1 0 0 1-2.5 6.4 17.6 17.6 0 0 1-2.3 2l5.4.4 2-15.8c1.5 0 3 0 4.4.2l1.6 14.6 11-1.6-4.8-25.5-4.2-22.2-3.4.3ZM74.5 32.6 78.7 50l5.8 23.4-4 .7a14.3 14.3 0 0 0 5 1.8 14 14 0 0 0 6-.9 17.3 17.3 0 0 0 6.7-4.2A17 17 0 0 1 91 60a13.5 13.5 0 0 1-4.8.3 7.5 7.5 0 0 1-4.4-2.8 10 10 0 0 1-2.1-7.4 10.6 10.6 0 0 1 3.3-7.2 11.7 11.7 0 0 1 8.2-2.4 8.6 8.6 0 0 1 5.6 3 17 17 0 0 1 7.4-3.5l.7-5.8c.3-1.2-.7-2.1-1.4-3a18.1 18.1 0 0 0-13.5-5.1 23 23 0 0 0-15.6 6.5Zm39.6-4.4-1.3 12.4a17 17 0 0 1 10.8 11.9 17.2 17.2 0 0 1-.5 10.2 16.9 16.9 0 0 1-13.8 10.9l-.3 2.7h13.7l1.2-11.7 6 11.2c0 .3.3.2.5.2h9.2l.4-46.8-9.2-.1-.9 17-3.6-7.5-4.7-10-7.5-.4Zm28.5 1.1v16.4l1.6.2L147 75a39.2 39.2 0 0 0 5.5.2 49.3 49.3 0 0 0 7.5-.7 11.3 11.3 0 0 0 6.1-3.2 8.5 8.5 0 0 0 2.3-5.5 10.6 10.6 0 0 0-3.9-9 11.4 11.4 0 0 0-3.8-1.9 11.3 11.3 0 0 0 7.3-4.8 13.2 13.2 0 0 0 2.4-9.3 16.8 16.8 0 0 0-2.6-7.4 11.2 11.2 0 0 0-5.3-4 21 21 0 0 0-8.2-1 76.4 76.4 0 0 0-11.6 1Zm-37 14a13.5 13.5 0 0 0-6.2 24.1 13.5 13.5 0 0 0 17-.6 13.5 13.5 0 0 0 4.4-8 13.7 13.7 0 0 0-.8-7.2 13.5 13.5 0 0 0-14.3-8.3ZM85.4 48v8.2h5.4A17.5 17.5 0 0 1 93 48h-7.7Z"/><path d="M44.9 33.2a5.6 5.6 0 0 1 2.7 2 5.3 5.3 0 0 1 .2 5.9 5.5 5.5 0 0 1-3.8 2.3l.9-10.2ZM18.3 35.1a11.4 11.4 0 0 1 7.3 2.8 8.5 8.5 0 0 1 2.2 5.1 7 7 0 0 1-1.2 5.2 9 9 0 0 1-5.5 3.2L18.3 35Zm3.7 5.2 1 6a3.6 3.6 0 0 0 1-4 2.9 2.9 0 0 0-2-2ZM64.4 35.2 66 47h-2.8l1-11.8ZM153 41a5.6 5.6 0 0 1 3.7 1.2 4 4 0 0 1 .8 3.8 3.1 3.1 0 0 1-1.8 2.2 5.3 5.3 0 0 1-2.5.3L153 41ZM176 43.8a18.6 18.6 0 0 1 .4-2.5l1 9.6a19.9 19.9 0 0 1-2.3 0l.9-7ZM153.9 59.5a3.8 3.8 0 0 1 2.9 1.3 4 4 0 0 1 .5 3.2c-.5 1.2-2 1.5-3.3 1.6l-.1-6Z"/><path d="m624.5 474.1 39.4-.1-31.8 39 2.6 6.3h-7.1c-.3 0-.6 0-.8.3l-10.4 12.7 11.2.2c.3 0 .7 0 1-.2l22.5-20.4 4.4-4-1.3 4.2-12.2 37.6H580l5.7-7 24.6-29.6c-1.3-2.8-2.8-5.4-4-8.2l10.7-.1 11.7-13.6h-15.5l-3.5.1-5.5 5.7-13.6 14.4-3 3.2 2-9.2 5.6-23.5 1.8-7.7h27.6ZM560.8 489.7l10.9-2.6c-2.4 13.4-4.9 26.8-7.2 40.3l10.7-2.5-4 19.3-18.7.1c0-1 .2-2 .4-3l7.5-1 3.7-23.7-7.5 1c1-7.5 2.3-15 3.4-22.4l.8-5.5Z" transform="translate(-351.7 -470)" style="fill:red"/><path d="m540.8 494 9.8-1.6-2 29.8 11.8-1.8-3 16.7-12 1.6-.9-4.6-4.6-23.8.2-4.8.7-11.4ZM530.5 495.8l3.4-.3 4.2 22.2 4.9 25.5-11.1 1.5-1.5-14.6-4.5-.1-2 15.8-5.3-.4a17.6 17.6 0 0 0 2.2-2 11.1 11.1 0 0 0 2.6-6.4 13.3 13.3 0 0 0-2-8.6 15.2 15.2 0 0 0-2-2.5 19 19 0 0 0 4.3-5.2 18.3 18.3 0 0 0 1.1-14 17.3 17.3 0 0 0-3.1-6c-.2-.2-.4-.4-.3-.6l.6-3.4 8.5-1Zm-2.8 18.1-.8 7.1a19.9 19.9 0 0 0 2.3 0l-1-9.6a18.6 18.6 0 0 0-.5 2.5Z" transform="translate(-351.7 -470)" style="fill:red"/><path d="M494.3 499.4a76.4 76.4 0 0 1 11.6-1 21 21 0 0 1 8.2 1.1 11.2 11.2 0 0 1 5.3 4 16.8 16.8 0 0 1 2.7 7.4 13.2 13.2 0 0 1-2.5 9.3 11.3 11.3 0 0 1-7.3 4.8 11.4 11.4 0 0 1 3.8 1.8 10.6 10.6 0 0 1 4 9 8.5 8.5 0 0 1-2.4 5.6 11.3 11.3 0 0 1-6 3.2 49.3 49.3 0 0 1-7.6.7 39.2 39.2 0 0 1-5.5-.2l-2.7-29.1-1.6-.2v-16.4Zm10.4 11.7.3 7.5a5.3 5.3 0 0 0 2.4-.3 3.1 3.1 0 0 0 1.8-2.2 4 4 0 0 0-.8-3.8 5.6 5.6 0 0 0-3.6-1.2Zm1 18.5v6.1c1.3 0 2.8-.4 3.4-1.6a4 4 0 0 0-.6-3.2 3.8 3.8 0 0 0-2.9-1.3ZM459 518.6a5.2 5.2 0 0 1 .6 1.5l1.2 4.2h6.1a2.7 2.7 0 0 1-.7.7l-4.2 2.8c.6 2 1.3 3.8 1.8 5.8a5.4 5.4 0 0 1-1-.7l-3.7-3c-1.7 1.2-3.3 2.5-5 3.6a9.6 9.6 0 0 1 .4-1.5l1.6-4.3-4.3-3a3.4 3.4 0 0 1-.6-.6 28 28 0 0 1 3.1.1h3l1.8-5.6Z" transform="translate(-351.7 -470)" style="fill:red"/><path d="M355.7 476.4a28.7 28.7 0 0 1 8.8 1.9 41.3 41.3 0 0 1 16.3 10.3 29.8 29.8 0 0 1 7.6 14.5 45 45 0 0 1 .2 18.6 29.1 29.1 0 0 1-6.2 12.6 33 33 0 0 1-13.5 9.3l-6-39.3-3.2-.2-4-27.7Zm14.3 28.8 2.8 16.3a9 9 0 0 0 5.5-3.2 7 7 0 0 0 1.2-5.2 8.5 8.5 0 0 0-2.1-5.1 11.4 11.4 0 0 0-7.4-2.8Z" transform="translate(-351.7 -470)" style="fill:#fff300"/><path d="M385 483.5a13.4 13.4 0 0 1 4.8.2 26.7 26.7 0 0 1 7.8 3.1 25.5 25.5 0 0 1 10 10.3 18.6 18.6 0 0 1 1.3 13.2 19.3 19.3 0 0 1-9 11.2l11.8 19-11.5 4a4.3 4.3 0 0 1-.5-1l-5.2-12.4-1.1 12.7-11.1-.7.1-3c0-.4 0-.7.3-1a37.6 37.6 0 0 0 10.1-21.6 38.3 38.3 0 0 0-1.2-15.6 41.2 41.2 0 0 0-6.5-12.9c-.2-.2-.4-.5-.3-.7l.2-4.8Zm11.6 19.8-.8 10.2a5.5 5.5 0 0 0 3.8-2.4 5.3 5.3 0 0 0-.2-5.8 5.6 5.6 0 0 0-2.8-2Z" transform="translate(-351.7 -470)" style="fill:#fff300"/><path d="m409.7 492 11.5 2.2 11.4 46.7c-3 .8-6 1.5-8.9 2a7.9 7.9 0 0 1-2.5 0l-2-15.6h-4.8l-.8 8.3c-.5-.2-1.3 0-1.6-.5l-5.8-9.3a12.5 12.5 0 0 1-.8-1.2 18.9 18.9 0 0 1 .3-2.5c0-.4.4-.7.7-1a21 21 0 0 0 5.7-9.2 30 30 0 0 0 1.1-8.6 18.5 18.5 0 0 0-3.3-10.2c-.3-.4-.2-.8-.2-1.2Zm6.4 13.3-1 11.8h2.8c-.6-3.9-1.1-7.9-1.8-11.8Z" transform="translate(-351.7 -470)" style="fill:#fff300"/><path d="M426.2 502.6c4-4.1 9.9-6.2 15.6-6.4a18.1 18.1 0 0 1 13.6 5.2c.7.8 1.6 1.8 1.3 3l-.7 5.8a17 17 0 0 0-7.4 3.5 8.6 8.6 0 0 0-5.6-3 11.7 11.7 0 0 0-8.1 2.4 10.6 10.6 0 0 0-3.4 7.1 10 10 0 0 0 2.1 7.4 7.5 7.5 0 0 0 4.4 2.8 13.5 13.5 0 0 0 4.8-.2 17 17 0 0 0 7.1 10.8 17.3 17.3 0 0 1-6.7 4.2 14 14 0 0 1-6 .8 14.3 14.3 0 0 1-5-1.8l4-.7-5.7-23.4-4.3-17.5ZM465.9 498.3l7.5.5 4.7 10c1.1 2.4 2.2 5 3.5 7.4l.9-17 9.2.1-.4 46.8H482c-.2 0-.5.1-.6-.1l-5.9-11.3-1.2 11.8-13.7-.1c0-1 .2-1.8.3-2.7a17 17 0 0 0 3.5-33l1.4-12.4Z" transform="translate(-351.7 -470)" style="fill:#fff300"/><path d="M457.4 513.4a13.5 13.5 0 0 1 10.7 23.5 13.5 13.5 0 0 1-21.5-5.5 13.5 13.5 0 0 1 10.8-18Zm1.7 5.2-1.8 5.7h-3a28 28 0 0 0-3.2 0 3.4 3.4 0 0 0 .7.5l4.3 3-1.6 4.3a9.6 9.6 0 0 0-.4 1.4c1.7-1 3.2-2.4 5-3.5l3.7 3a5.4 5.4 0 0 0 1 .6c-.5-2-1.2-3.8-1.8-5.7l4.2-2.9a2.7 2.7 0 0 0 .7-.6h-6l-1.3-4.2a5.2 5.2 0 0 0-.5-1.6ZM437 518.2h7.8a17.5 17.5 0 0 0-2.4 8.2h-5.3v-8.2Z" transform="translate(-351.7 -470)" style="fill:#fff300"/></svg>